<svg height="512" viewBox="0 0 60 60" width="512" xmlns="http://www.w3.org/2000/svg"><g id="Page-1" fill="none" fill-rule="evenodd"><g id="028---Tag" fill-rule="nonzero" transform="translate(0 -1)"><g id="Icons_copy" transform="translate(1 2)"><path id="Shape" d="m46.41 27.24-16.67 28.17c-.7101855 1.2048631-1.8709729 2.0772843-3.2257959 2.4244342-1.354823.34715-2.7921185.1404425-3.9942041-.5744342l-19.94-11.84c-2.50412123-1.4935961-3.32715294-4.732047-1.84-7.24l16.66-28.18c.6895447-1.15148916 1.790281-1.99848429 3.08-2.37l16.25-4.69c1.0000402-.30438822 2.0704383-.28689806 3.06.05-1.5446777 1.46591312-2.8835318 3.13443485-3.98 4.96-2.478034-.32974529-4.8475119 1.12418095-5.6759501 3.4827981-.8284383 2.3586171.1114196 4.974911 2.2513764 6.2671841 2.1399568 1.292273 4.8929811.9060299 6.594714-.9252237 1.701733-1.8312535 1.8853565-4.6051694.4398597-6.6447585.961207-1.61186258 2.1615497-3.06845821 3.56-4.32.1538381.33649307.2711747.68850268.35 1.05l2.37 10.62.99 4.47.32 1.45c.296333 1.3097017.0817362 2.6831216-.6 3.84z" fill="#ffdc00"/><path id="Shape" d="m36.79 2.99c-1.5446777 1.46591312-2.8835318 3.13443485-3.98 4.96-2.4829298-.31767726-4.8481702 1.15008051-5.6658202 3.5159435-.81765 2.365863.1365833 4.9808418 2.2858202 6.2640565 1.2652068.7476881 2.7864283.9291315 4.192.5-.4165176-.1166277-.8169212-.2845823-1.192-.5-2.1492369-1.2832147-3.1034702-3.8981935-2.2858202-6.2640565.81765-2.36586299 3.1828904-3.83362076 5.6658202-3.5159435 1.0964682-1.82556515 2.4353223-3.49408688 3.98-4.96-.9895617-.33689806-2.0599598-.35438822-3.06-.05l-.064.018c.041.013.084.019.124.032z" fill="#fec108"/><path id="Shape" d="m47.01 23.4-.32-1.45-.99-4.47-2.37-10.62c-.0788253-.36149732-.1961619-.71350693-.35-1.05-.8682089.75121821-1.6464034 1.60055421-2.319 2.531l2.039 9.139.99 4.47.32 1.45c.296333 1.3097017.0817362 2.6831216-.6 3.84l-16.67 28.17c-.6757769 1.1405976-1.7595047 1.9819878-3.032 2.354 2.3127449.6955335 4.8017134-.2757914 6.032-2.354l16.67-28.17c.6817362-1.1568784.896333-2.5302983.6-3.84z" fill="#fec108"/><path id="Shape" d="m38.01 12.45-.18.31" fill="#ff9801"/><path id="Shape" d="m34.38 10.3-.19.31" fill="#ff9801"/><path id="Shape" d="m56.17 18.27c-2.05 2.88-5.39 4.17-9.48 3.68l-.99-4.47c1.97.5 5.26.84 7.05-1.66 1.172481-1.8417358 1.3811437-4.1370256.56-6.16-.733993-2.3941903-2.5420183-4.30943994-4.89-5.18-1.883205-.5758324-3.9305782-.09454693-5.36 1.26-.0290783.02042428-.0558965.0438902-.08.07-1.3984503 1.25154179-2.598793 2.70813742-3.56 4.32-.5.78-.97 1.57-1.41 2.32-.3840605.6484371-1.0848841 1.0427238-1.8384773 1.0343361-.7535932-.0083876-1.4454673-.4181753-1.815-1.075s-.3605832-1.4608991.0234773-2.1093361c.44-.75.92-1.55 1.43-2.35 1.0964682-1.82556515 2.4353223-3.49408688 3.98-4.96.1905156-.18712177.3907954-.36403556.6-.53 2.5034024-2.24110668 5.9943787-3.01435223 9.21-2.04 3.6624751 1.24679414 6.513678 4.16110955 7.68 7.85 1.2941105 3.3134272.8792372 7.0510244-1.11 10z" fill="#02a9f4"/><path id="Shape" d="m57.28 8.27c-1.166322-3.68889045-4.0175249-6.60320586-7.68-7.85-1.3791012-.41421195-2.8338789-.51197191-4.256-.286.4239691.0703351.843377.16583723 1.256.286 3.6624751 1.24679414 6.513678 4.16110955 7.68 7.85 1.2941105 3.3134272.8792372 7.0510244-1.11 10-1.4937986 2.0948567-3.8220044 3.4396937-6.383 3.687 4.045.457 7.35-.83 9.383-3.687 1.9892372-2.9489756 2.4041105-6.6865728 1.11-10z" fill="#0377bc"/><path id="Shape" d="m5.236 40.854 19.1 11.346c.2315164.1378685.5084216.1778163.7694658.111007.2610443-.0668093.4847138-.2348697.6215342-.467007l13.473-22.774c.2858314-.4831285.1270984-1.1064347-.355-1.394l-19.1-11.347c-.2316478-.1373271-.5083738-.1769697-.7692595-.1102009-.2608858.0667687-.4845447.2344753-.6217405.4662009l-13.474 22.775c-.28624725.4833049-.12693492 1.107129.356 1.394z" fill="#f5f5f5"/><path id="Shape" d="m38.845 27.676-19.1-11.347c-.2316478-.1373271-.5083738-.1769697-.7692595-.1102009-.2608858.0667687-.4845447.2344753-.6217405.4662009l-.263.444 17.754 10.547c.4820984.2875653.6408314.9108715.355 1.394l-13.21 22.33 1.346.8c.2315164.1378685.5084216.1778163.7694658.111007.2610443-.0668093.4847138-.2348697.6215342-.467007l13.473-22.774c.2858314-.4831285.1270984-1.1064347-.355-1.394z" fill="#cfd8dc"/></g><g id="Layer_12" fill="#000"><path id="Shape" d="m50.876 1.457c-3.5276599-1.07394818-7.3600158-.23145143-10.112 2.223-.088.071-.169.14-.251.21-1.0110022-.23867858-2.0667905-.20937985-3.063.085l-16.25 4.694c-1.5370938.43846302-2.8461154 1.4523728-3.655 2.831l-16.669 28.172c-1.7572655 2.9837695-.77421357 6.8266089 2.2 8.6l19.937 11.85c1.4305757.8484711 3.1397956 1.0933536 4.7510559.6806909 1.6112602-.4126627 2.9923427-1.4490079 3.8389441-2.8806909l16.668-28.176c.81591-1.3736337 1.0732862-3.0080975.719-4.566l-.033-.149c.125 0 .256.023.38.023 3.404466.1368925 6.6513677-1.4398201 8.649-4.2 2.1776435-3.2093161 2.6421697-7.282796 1.243-10.9-1.2749094-3.99936399-4.3760093-7.15392473-8.353-8.497zm-4.326 27.27-16.668 28.173c-.57564.9754369-1.5157125 1.6817733-2.6128219 1.9631796s-2.2611008.114758-3.2351781-.4631796l-19.941-11.844c-2.02694801-1.2114405-2.69416753-3.8329474-1.493-5.866l16.67-28.176c.5550002-.932696 1.4436144-1.6197098 2.486-1.922l16.263-4.7c.2112837-.06257246.4273402-.1077236.646-.135-.8658789.99756793-1.6595564 2.05558179-2.375 3.166-2.2567086-.05623667-4.3697066 1.1040178-5.5333652 3.0383898-1.1636585 1.934372-1.1986188 4.3447098-.0915514 6.3120171 1.1070675 1.9673073 3.1855263 3.1883559 5.4429166 3.1975931.5273006-.0012436 1.0523756-.0684317 1.563-.2 1.8812881-.4809572 3.4333652-1.8068117 4.20236-3.5898461.7689947-1.7830344.6680334-3.8218185-.27336-5.5201539.5669494-.8695133 1.1980374-1.6954765 1.888-2.471l3.551 15.928c.2352307 1.0609076.0605467 2.1715263-.489 3.109zm-6.682-13.769s.177-.3.412-.69c.5076805 2.2495292-.8660017 4.494835-3.1 5.067-1.0959764.284806-2.2604136.1176343-3.232-.464-1.4677977-.8706305-2.2775451-2.5305075-2.0602271-4.2231978.2173181-1.6926903 1.4201035-3.0941859 3.0602271-3.5658022-.14.236-.284.475-.419.7-.8726394 1.4782269-.3863105 3.3837601 1.088 4.263 1.477244.8734327 3.3827844.3851884 4.258-1.091zm5.432-6.311c-.036-.167-.085-.331-.135-.494 1.1265834-.87637049 2.6119839-1.1429425 3.973-.713 2.0255838.78917622 3.5792437 2.46107332 4.218 4.539.712134 1.718579.5543589 3.6747667-.424 5.257-1.3 1.824-3.745 1.736-5.4 1.41zm11.058 11.043c-1.721 2.423-4.428 3.553-7.852 3.319l-.506-2.269c2.9.369 5.2-.432 6.563-2.343 1.3604014-2.1058836 1.6171485-4.7400565.689-7.069-.8427042-2.69622317-2.89631-4.84414989-5.552-5.807-2.2057862-.66674348-4.5997127-.11327409-6.289 1.454-.035.029-.069.059-.107.1-1.464517 1.31100822-2.7223996 2.83590847-3.731 4.523l-.006.009c-.509.8-1.419 2.335-1.419 2.335-.3123551.523882-.9888937.6975939-1.515.389-.2542422-.1520857-.4375792-.3990216-.509609-.6863904-.0720298-.2873689-.0268407-.5915855.125609-.8456096.434-.734.9-1.521 1.4-2.312l.019-.029c1.0569863-1.75497047 2.348199-3.3577161 3.838-4.764.1604212-.16213494.3311071-.31378145.511-.454 2.2515773-2.02317039 5.3946736-2.72689957 8.294-1.857 3.3550587 1.1543023 5.9631169 3.83249759 7.028 7.217 1.1835007 3.007527.8169257 6.4042309-.981 9.09z"/><path id="Shape" d="m40.355 28.816-19.1-11.347c-.9582409-.567561-2.1951375-.2510623-2.763.707l-13.472 22.775c-.56613797.9579719-.25091176 2.1933904.705 2.763l19.1 11.347c.3103191.1849024.6647705.2826701 1.026.283.1686293-.0002641.3365759-.0214254.5-.063.5195372-.1309667.9648016-.464915 1.236-.927l13.474-22.774c.5654684-.9586191.2499226-2.1939851-.706-2.764zm-14.507 24.525-19.102-11.347-.511.86 14-23.665 19.105 11.372z"/><path id="Shape" d="m15.16 44.409c.4750205.280723 1.0876507.1236498 1.369-.351l10.21-17.258c.1976962-.3079323.2114105-.6992559.0357564-1.0202727-.175654-.3210167-.5126212-.5204543-.8785527-.5199806s-.7023813.2007829-.8772037.5222533l-10.21 17.257c-.1351346.2282171-.1740722.5007702-.1082464.7576971.0658258.2569268.2310224.4771798.4592464.6123029z"/><path id="Shape" d="m20.6 47.64c.4752816.2805507 1.0879896.12301 1.369-.352l10.209-17.258c.1911277-.3078699.2007471-.6950478.0251436-1.012029s-.5089494-.5141608-.8713196-.5154c-.3623701-.0012391-.6970568.1936562-.874824.509429l-10.21 17.258c-.1349644.2284595-.1735957.5011931-.1073877.7581477s.2318264.4770603.4603877.6118523z"/></g></g></g></svg>